# xmcd CD database file
#
# Track frame offsets:
#	183
#	18015
#	33903
#	51048
#	66948
#	79688
#	95038
#	109883
#	125218
#	140948
#	159095
#	171898
#	186278
#	202668
#	215600
#	233213
#
# Disc length: 3345 seconds
#
# Revision: 0
# Processed by: cddbd v1.5.1PL2 Copyright (c) Steve Scherf et al.
# Submitted via: CDex 1.51
#
DISCID=de0d0f10
DTITLE=Various Artist - Instrumental
DYEAR=1900
DGENRE=Salsa
TTITLE0=01. Bamboleo
TTITLE1=02. Volare
TTITLE2=03. Mexico
TTITLE3=04. Coconut woman
TTITLE4=05. La Pajarilla
TTITLE5=06. Esperito Santo
TTITLE6=07. Pico da Tijuca
TTITLE7=08. Mathilda
TTITLE8=09. Copacabana
TTITLE9=10. La Golondrina
TTITLE10=11. Ay Caray
TTITLE11=12. El Chiringuito
TTITLE12=13. Despedida de Cuba
TTITLE13=14. Soul Cha Cha
TTITLE14=15. Mentiras
TTITLE15=16. Quando, Quando, Quando
EXTD=
EXTT0=
EXTT1=
EXTT2=
EXTT3=
EXTT4=
EXTT5=
EXTT6=
EXTT7=
EXTT8=
EXTT9=
EXTT10=
EXTT11=
EXTT12=
EXTT13=
EXTT14=
EXTT15=
PLAYORDER=
